<?xml version="1.0" encoding="UTF-8"?><svg id="Layer_1" xmlns="http://www.w3.org/2000/svg" viewBox="0 0 495.16 122.15"><defs><style>.cls-1{fill:#1d1d1b;}.cls-1,.cls-2{stroke-width:0px;}.cls-2{fill:#fff;}</style></defs><rect class="cls-2" x="0" y="0" width="122.15" height="122.15"/><path class="cls-1" d="m55.3,87.6c-4.68,0-8.75-.55-12.22-1.64-3.46-1.09-6.14-2.75-8.03-4.97-1.89-2.22-2.84-4.97-2.84-8.26s.96-6,2.88-8.14,4.27-3.61,7.06-4.41v-.3c-2.39-1-4.41-2.38-6.05-4.15-1.64-1.77-2.47-4.12-2.47-7.06s.98-5.62,2.95-7.73c1.97-2.12,4.71-3.71,8.22-4.78s7.68-1.61,12.52-1.61c4.53,0,8.45.6,11.77,1.79,3.31,1.19,5.89,2.83,7.73,4.89,1.84,2.07,2.76,4.42,2.76,7.06v.97h-4.71v-.45c-.05-2.39-.9-4.32-2.54-5.79-1.64-1.47-3.81-2.58-6.5-3.33-2.69-.75-5.53-1.12-8.52-1.12-2.19,0-4.38.16-6.57.49-2.19.32-4.22.87-6.09,1.64s-3.35,1.79-4.45,3.06c-1.1,1.27-1.64,2.85-1.64,4.74,0,2.44.65,4.38,1.94,5.83,1.3,1.45,3.01,2.48,5.15,3.1,2.14.62,4.46.93,6.95.93h7.62v4.04h-7.55c-2.69,0-5.22.3-7.58.9-2.37.6-4.29,1.64-5.75,3.14-1.47,1.49-2.2,3.59-2.2,6.28s.83,4.68,2.5,6.27c1.67,1.59,3.96,2.75,6.87,3.47s6.24,1.08,9.97,1.08c4.08,0,7.48-.41,10.2-1.23,2.71-.82,4.76-2.09,6.13-3.81,1.37-1.72,2.06-3.85,2.06-6.39v-13.75h12.1v4.04h-7.4v9.49c0,3.49-.93,6.41-2.8,8.78-1.87,2.37-4.58,4.11-8.14,5.23-3.56,1.12-8.01,1.68-13.34,1.68Z"/><path class="cls-1" d="m80.37,80.34c-.5-.9-.75-2.34-.75-4.33v-16.23h-4.63v17.87c0,1.94.29,3.51.86,4.71.57,1.19,1.43,2.07,2.58,2.61,1.14.55,2.59.82,4.33.82.7,0,1.47-.04,2.32-.11s1.69-.2,2.54-.37c.85-.17,1.62-.39,2.32-.63v-2.99h-5.6c-2.14,0-3.46-.45-3.96-1.34Z"/><path class="cls-1" d="m79.62,49.27v-3.93c0-1.99.25-3.44.75-4.33.5-.9,1.82-1.34,3.96-1.34h5.6v-2.99c-.7-.25-1.47-.46-2.32-.63-.85-.17-1.69-.3-2.54-.37s-1.62-.11-2.32-.11c-1.75,0-3.19.28-4.33.82-1.15.55-2.01,1.42-2.58,2.61-.57,1.2-.86,2.77-.86,4.71v5.57h4.63Z"/><path class="cls-2" d="m154.78,59.01c0-3.22,0-6.37-.07-9.58h6.73c.15,1.54.22,3.58.22,5.56,1.83-3.22,5.42-6.58,11.93-6.58,6.15,0,9.73,2.93,11.41,7.1,1.98-3.22,5.42-7.1,12.73-7.1s13.24,4.24,13.24,15.14v22.9h-6.95v-22.61c0-4.32-1.39-9.66-7.97-9.66-5.85,0-9.73,3.95-9.73,12v20.27h-6.88v-22.9c0-4.46-1.54-9.37-8.05-9.37-6.95,0-9.73,5.42-9.73,12.51v19.75h-6.88v-27.44Z"/><path class="cls-2" d="m227.06,69.55c.37,7.1,5.2,12.29,12.66,12.29,5.78,0,9-2.34,10.97-5.93h6.95c-1.97,5.49-7.17,11.56-18.29,11.56-13.24,0-19.32-9.66-19.32-19.46,0-11.12,7.46-19.61,19.17-19.61,14.05,0,19.02,10.32,19.02,19.32,0,.66,0,1.1-.07,1.83h-31.1Zm23.93-4.98c-.37-4.39-2.71-10.75-11.85-10.75-7.61,0-11.27,4.76-11.93,10.75h23.78Z"/><path class="cls-2" d="m267.3,59.01c0-3.22,0-6.37-.07-9.58h6.73c.15,1.54.22,3.58.22,5.56,1.83-3.22,5.42-6.58,11.93-6.58,6.15,0,9.73,2.93,11.41,7.1,1.98-3.22,5.42-7.1,12.73-7.1s13.24,4.24,13.24,15.14v22.9h-6.95v-22.61c0-4.32-1.39-9.66-7.97-9.66-5.85,0-9.73,3.95-9.73,12v20.27h-6.88v-22.9c0-4.46-1.54-9.37-8.05-9.37-6.95,0-9.73,5.42-9.73,12.51v19.75h-6.88v-27.44Z"/><path class="cls-2" d="m339.59,69.55c.37,7.1,5.2,12.29,12.66,12.29,5.78,0,9-2.34,10.97-5.93h6.95c-1.97,5.49-7.17,11.56-18.29,11.56-13.24,0-19.32-9.66-19.32-19.46,0-11.12,7.46-19.61,19.17-19.61,14.05,0,19.02,10.32,19.02,19.32,0,.66,0,1.1-.07,1.83h-31.1Zm23.93-4.98c-.37-4.39-2.71-10.75-11.85-10.75-7.61,0-11.27,4.76-11.93,10.75h23.78Z"/><path class="cls-2" d="m374.86,49.43h7.39v-11.93h6.95v11.93h9.66v5.49h-9.66v20.27c0,4.24,1.1,6.15,5.12,6.15,1.02,0,2.56-.07,3.66-.37v5.12c-1.68.59-3.66.73-5.78.73-7.68,0-9.95-3.44-9.95-10.76v-21.14h-7.39v-5.49Z"/><path class="cls-2" d="m406.98,49.43h6.95v37.02h-6.95v-37.02Z"/><path class="cls-2" d="m460.68,74.89c-1.83,6.66-7.61,12.58-18.14,12.58-13.17,0-19.54-8.85-19.54-19.39s7.17-19.68,19.61-19.68,17.19,7.9,18,12.88h-6.95c-1.32-3.51-4.24-7.24-11.12-7.24-7.83,0-12.37,5.78-12.37,13.9,0,7.68,4.39,13.9,12.37,13.9,6,0,9.37-2.78,11.19-6.95h6.95Z"/></svg>