<?xml version="1.0" encoding="utf-8"?>
<!-- Generator: Adobe Adobe Illustrator 24.2.0, SVG Export Plug-In . SVG Version: 6.00 Build 0)  -->
<svg version="1.1" id="Layer_1" xmlns="http://www.w3.org/2000/svg" xmlns:xlink="http://www.w3.org/1999/xlink" x="0px" y="0px"
	 viewBox="0 0 518.75 122.15" style="enable-background:new 0 0 518.75 122.15;" xml:space="preserve">
<style type="text/css">
	.st0{fill:none;stroke:#000000;stroke-miterlimit:10;}
	.st1{fill:none;stroke:#000000;stroke-width:10;stroke-linecap:round;stroke-linejoin:round;stroke-miterlimit:10;}
	.st2{fill:#FFFFFF;}
	.st3{fill:url(#SVGID_1_);}
	.st4{fill:url(#SVGID_2_);}
	.st5{fill:url(#SVGID_3_);}
	.st6{fill:url(#SVGID_4_);}
	.st7{fill:url(#SVGID_5_);}
	.st8{fill:url(#SVGID_6_);}
	.st9{opacity:0.902;fill:#FFFFFF;}
</style>
<rect y="0" width="122.15" height="122.15"/>
<g>
	<g>
		<path d="M144.01,57.57c0-3.98,0-7.91-0.09-11.89h9.72c0.22,1.86,0.31,4.31,0.3,6.54c2.35-3.8,6.78-7.81,14.67-7.81
			c7.73,0,12.12,3.62,14.08,8.51c2.45-3.85,6.74-8.51,15.76-8.51c9.22,0,16.67,5.38,16.67,19.03v28.31h-9.97v-28
			c0-5.04-1.66-11.25-9.34-11.25c-6.82,0-11.2,4.57-11.2,13.94v25.3h-10.01V63.45c0-5.28-1.83-10.95-9.39-10.95
			c-8,0-11.19,6.18-11.19,14.44v24.8h-10.01V57.57z"/>
		<path d="M234.3,71.1c0.46,8.04,5.95,14.01,14.7,14.01c6.79,0,10.42-2.63,12.71-6.7h10.09c-2.55,7.17-9.16,14.62-23.19,14.62
			c-17.08,0-24.41-12.17-24.41-24.18c0-13.68,9.13-24.42,24.22-24.42c17.6,0,24.02,12.7,24.02,24.12c0,0.87,0,1.53-0.04,2.57H234.3z
			 M262.01,64.27c-0.37-5-3.03-12.28-13.64-12.28c-9.01,0-13.18,5.48-13.89,12.28H262.01z"/>
		<path d="M281.22,57.57c0-3.98,0-7.91-0.09-11.89h9.72c0.22,1.86,0.31,4.31,0.3,6.54c2.35-3.8,6.78-7.81,14.67-7.81
			c7.73,0,12.12,3.62,14.08,8.51c2.45-3.85,6.74-8.51,15.76-8.51c9.22,0,16.67,5.38,16.67,19.03v28.31h-9.97v-28
			c0-5.04-1.66-11.25-9.34-11.25c-6.82,0-11.2,4.57-11.2,13.94v25.3h-10.01V63.45c0-5.28-1.83-10.95-9.39-10.95
			c-8,0-11.19,6.18-11.19,14.44v24.8h-10.01V57.57z"/>
		<path d="M371.51,71.1c0.46,8.04,5.95,14.01,14.7,14.01c6.79,0,10.42-2.63,12.71-6.7h10.09c-2.55,7.17-9.16,14.62-23.19,14.62
			c-17.08,0-24.41-12.17-24.41-24.18c0-13.68,9.13-24.42,24.22-24.42c17.6,0,24.02,12.7,24.02,24.12c0,0.87,0,1.53-0.04,2.57H371.51
			z M399.23,64.27c-0.37-5-3.03-12.28-13.64-12.28c-9.01,0-13.18,5.48-13.89,12.28H399.23z"/>
		<path d="M412.82,45.68h8.93V31.15h10.13v14.53h11.68v7.74h-11.68v23.81c0,4.95,1.22,7.16,6.1,7.16c1.32,0,3.07-0.05,4.39-0.37
			v7.25c-2.18,0.72-4.82,0.89-7.65,0.89c-9.98,0-12.98-4.42-12.98-13.47V53.42h-8.93V45.68z"/>
		<path d="M451.35,23.81h10.09v10.7h-10.09V23.81z M451.35,45.68h10.09v46.07h-10.09V45.68z"/>
		<path d="M518.16,77.06c-2.16,8.42-9.46,15.96-23.04,15.96c-16.71,0-24.58-11.07-24.58-24.22c0-12.94,8.91-24.39,24.68-24.39
			c16.19,0,21.88,10.37,22.78,16.24H507.9c-1.42-3.85-4.69-8.28-12.75-8.28c-9.17,0-14.3,6.83-14.3,16.3
			c0,9.08,4.89,16.36,14.3,16.36c6.92,0,10.7-3.06,12.9-7.96H518.16z"/>
	</g>
</g>
<g>
	<g>
		<path class="st2" d="M91.18,63.04v-8.39H64.59v8.39h4.77v11.82h0c0,5.31-6.46,9.89-14.73,9.89c-7.48,0-13.2-3.43-13.2-11.29
			c0-6.44,4.29-10.24,13.06-10.43v-8.38c-7.91-0.36-10.45-3.37-10.45-8.3c0-4.76,3.31-9.01,11.43-9.01c8.11,0,11.18,4.1,12.37,8.74
			h9.97c-1.09-7.16-6.8-16.83-22.64-16.83c-15.12,0-21.61,8.16-21.61,16.6c0,8.17,5.75,11.4,9.19,12.41v0.18
			c-4.46,1.19-11.79,5.28-11.79,15.32c0,11.22,8.65,19.16,24.13,19.16c7.25,0,12.61-1.84,16.47-4.71c1.93,2.7,5.29,4.04,10.77,4.04
			c2.83,0,5.47-0.17,7.65-0.89v-7.25c-1.32,0.32-3.69,0.37-5,0.37c-4.88,0-7.03-2.22-7.03-7.16V63.04H91.18z"/>
	</g>
	<g>
		<path class="st2" d="M69.16,46.07h8.65v-1.55c0-4.95,2.15-7.16,7.03-7.16c1.32,0,3.69,0.05,5,0.37v-7.25
			c-2.18-0.72-4.82-0.89-7.65-0.89c-8.98-0.07-10.77,4.84-10.77,4.84L69.16,46.07z"/>
	</g>
</g>
<rect x="446.82" y="9.03" class="st2" width="28.5" height="31"/>
</svg>
